<mxfile host="app.diagrams.net" modified="2024-03-22T07:55:31.291Z" agent="Mozilla/5.0 (X11; Linux x86_64; rv:109.0) Gecko/20100101 Firefox/115.0" etag="JWiQ3KoPpmMdvoeH2iwf" version="24.0.7" type="device">
  <diagram name="Página-1" id="mrkUYzQ1I_oueoynunbM">
    <mxGraphModel dx="2021" dy="729" grid="1" gridSize="10" guides="1" tooltips="1" connect="1" arrows="1" fold="1" page="1" pageScale="1" pageWidth="827" pageHeight="1169" math="0" shadow="0">
      <root>
        <mxCell id="0" />
        <mxCell id="1" parent="0" />
        <mxCell id="-JjYpZbtbT3JPwtIFySJ-1" value="" style="rounded=0;whiteSpace=wrap;html=1;fillColor=#f5f5f5;fontColor=#333333;strokeColor=#666666;" vertex="1" parent="1">
          <mxGeometry x="55" y="380" width="290" height="60" as="geometry" />
        </mxCell>
        <mxCell id="-JjYpZbtbT3JPwtIFySJ-2" value="" style="rounded=0;whiteSpace=wrap;html=1;fillColor=#f5f5f5;fontColor=#333333;strokeColor=#666666;" vertex="1" parent="1">
          <mxGeometry x="55" y="300" width="290" height="60" as="geometry" />
        </mxCell>
        <mxCell id="-JjYpZbtbT3JPwtIFySJ-3" value="" style="rounded=0;whiteSpace=wrap;html=1;fillColor=#f5f5f5;fontColor=#333333;strokeColor=#666666;" vertex="1" parent="1">
          <mxGeometry x="55" y="220" width="290" height="60" as="geometry" />
        </mxCell>
        <mxCell id="-JjYpZbtbT3JPwtIFySJ-4" value="&lt;b&gt;&lt;font style=&quot;font-size: 14px;&quot;&gt;F1&lt;/font&gt;&lt;/b&gt;" style="rounded=0;whiteSpace=wrap;html=1;fillColor=#dae8fc;strokeColor=#6c8ebf;" vertex="1" parent="1">
          <mxGeometry x="65" y="395" width="40" height="30" as="geometry" />
        </mxCell>
        <mxCell id="-JjYpZbtbT3JPwtIFySJ-5" value="&lt;div&gt;&lt;b&gt;&lt;font style=&quot;font-size: 14px;&quot;&gt;F2&lt;/font&gt;&lt;/b&gt;&lt;/div&gt;" style="rounded=0;whiteSpace=wrap;html=1;fillColor=#dae8fc;strokeColor=#6c8ebf;" vertex="1" parent="1">
          <mxGeometry x="125" y="395" width="40" height="30" as="geometry" />
        </mxCell>
        <mxCell id="-JjYpZbtbT3JPwtIFySJ-6" value="&lt;b&gt;&lt;font style=&quot;font-size: 14px;&quot;&gt;F3&lt;/font&gt;&lt;/b&gt;" style="rounded=0;whiteSpace=wrap;html=1;fillColor=#dae8fc;strokeColor=#6c8ebf;" vertex="1" parent="1">
          <mxGeometry x="185" y="395" width="40" height="30" as="geometry" />
        </mxCell>
        <mxCell id="-JjYpZbtbT3JPwtIFySJ-7" value="&lt;b&gt;&lt;font style=&quot;font-size: 14px;&quot;&gt;F4&lt;/font&gt;&lt;/b&gt;" style="rounded=0;whiteSpace=wrap;html=1;fillColor=#f8cecc;strokeColor=#b85450;" vertex="1" parent="1">
          <mxGeometry x="239" y="315" width="40" height="30" as="geometry" />
        </mxCell>
        <mxCell id="-JjYpZbtbT3JPwtIFySJ-12" value="&lt;b&gt;&lt;font style=&quot;font-size: 14px;&quot;&gt;F3&lt;/font&gt;&lt;/b&gt;" style="rounded=0;whiteSpace=wrap;html=1;fillColor=#f8cecc;strokeColor=#b85450;" vertex="1" parent="1">
          <mxGeometry x="185" y="315" width="40" height="30" as="geometry" />
        </mxCell>
        <mxCell id="-JjYpZbtbT3JPwtIFySJ-13" value="&lt;b&gt;&lt;font style=&quot;font-size: 14px;&quot;&gt;F1&lt;/font&gt;&lt;/b&gt;" style="rounded=0;whiteSpace=wrap;html=1;fillColor=#dae8fc;strokeColor=#6c8ebf;" vertex="1" parent="1">
          <mxGeometry x="65" y="235" width="40" height="30" as="geometry" />
        </mxCell>
        <mxCell id="-JjYpZbtbT3JPwtIFySJ-14" value="&lt;div&gt;&lt;b&gt;&lt;font style=&quot;font-size: 14px;&quot;&gt;F2&lt;/font&gt;&lt;/b&gt;&lt;/div&gt;" style="rounded=0;whiteSpace=wrap;html=1;fillColor=#dae8fc;strokeColor=#6c8ebf;" vertex="1" parent="1">
          <mxGeometry x="125" y="235" width="40" height="30" as="geometry" />
        </mxCell>
        <mxCell id="-JjYpZbtbT3JPwtIFySJ-15" value="&lt;b&gt;&lt;font style=&quot;font-size: 14px;&quot;&gt;F3&lt;/font&gt;&lt;/b&gt;" style="rounded=0;whiteSpace=wrap;html=1;fillColor=#f8cecc;strokeColor=#b85450;" vertex="1" parent="1">
          <mxGeometry x="180" y="235" width="40" height="30" as="geometry" />
        </mxCell>
        <mxCell id="-JjYpZbtbT3JPwtIFySJ-16" value="&lt;b&gt;&lt;font style=&quot;font-size: 14px;&quot;&gt;F4&lt;/font&gt;&lt;/b&gt;" style="rounded=0;whiteSpace=wrap;html=1;fillColor=#f8cecc;strokeColor=#b85450;" vertex="1" parent="1">
          <mxGeometry x="239" y="235" width="40" height="30" as="geometry" />
        </mxCell>
        <mxCell id="-JjYpZbtbT3JPwtIFySJ-18" value="" style="shape=flexArrow;endArrow=classic;html=1;rounded=0;" edge="1" parent="1">
          <mxGeometry width="50" height="50" relative="1" as="geometry">
            <mxPoint x="353" y="329.5" as="sourcePoint" />
            <mxPoint x="450" y="330" as="targetPoint" />
            <Array as="points">
              <mxPoint x="384" y="329.5" />
            </Array>
          </mxGeometry>
        </mxCell>
        <mxCell id="-JjYpZbtbT3JPwtIFySJ-19" value="Añadimos &lt;b&gt;F5&lt;/b&gt;" style="text;strokeColor=none;align=center;fillColor=none;html=1;verticalAlign=middle;whiteSpace=wrap;rounded=0;" vertex="1" parent="1">
          <mxGeometry x="370" y="285" width="60" height="30" as="geometry" />
        </mxCell>
        <mxCell id="-JjYpZbtbT3JPwtIFySJ-20" value="" style="rounded=0;whiteSpace=wrap;html=1;fillColor=#f5f5f5;fontColor=#333333;strokeColor=#666666;" vertex="1" parent="1">
          <mxGeometry x="465" y="380" width="292" height="60" as="geometry" />
        </mxCell>
        <mxCell id="-JjYpZbtbT3JPwtIFySJ-21" value="" style="rounded=0;whiteSpace=wrap;html=1;fillColor=#f5f5f5;fontColor=#333333;strokeColor=#666666;" vertex="1" parent="1">
          <mxGeometry x="465" y="300" width="292" height="60" as="geometry" />
        </mxCell>
        <mxCell id="-JjYpZbtbT3JPwtIFySJ-22" value="" style="rounded=0;whiteSpace=wrap;html=1;fillColor=#f5f5f5;fontColor=#333333;strokeColor=#666666;" vertex="1" parent="1">
          <mxGeometry x="465" y="220" width="292" height="60" as="geometry" />
        </mxCell>
        <mxCell id="-JjYpZbtbT3JPwtIFySJ-23" value="&lt;b&gt;&lt;font style=&quot;font-size: 14px;&quot;&gt;F1&lt;/font&gt;&lt;/b&gt;" style="rounded=0;whiteSpace=wrap;html=1;fillColor=#dae8fc;strokeColor=#6c8ebf;" vertex="1" parent="1">
          <mxGeometry x="475" y="395" width="42" height="30" as="geometry" />
        </mxCell>
        <mxCell id="-JjYpZbtbT3JPwtIFySJ-24" value="&lt;div&gt;&lt;b&gt;&lt;font style=&quot;font-size: 14px;&quot;&gt;F2&lt;/font&gt;&lt;/b&gt;&lt;/div&gt;" style="rounded=0;whiteSpace=wrap;html=1;fillColor=#dae8fc;strokeColor=#6c8ebf;" vertex="1" parent="1">
          <mxGeometry x="535" y="395" width="42" height="30" as="geometry" />
        </mxCell>
        <mxCell id="-JjYpZbtbT3JPwtIFySJ-25" value="&lt;b&gt;&lt;font style=&quot;font-size: 14px;&quot;&gt;F3&lt;/font&gt;&lt;/b&gt;" style="rounded=0;whiteSpace=wrap;html=1;fillColor=#dae8fc;strokeColor=#6c8ebf;" vertex="1" parent="1">
          <mxGeometry x="595" y="395" width="42" height="30" as="geometry" />
        </mxCell>
        <mxCell id="-JjYpZbtbT3JPwtIFySJ-26" value="&lt;b&gt;&lt;font style=&quot;font-size: 14px;&quot;&gt;F4&lt;/font&gt;&lt;/b&gt;" style="rounded=0;whiteSpace=wrap;html=1;fillColor=#f8cecc;strokeColor=#b85450;" vertex="1" parent="1">
          <mxGeometry x="649" y="315" width="42" height="30" as="geometry" />
        </mxCell>
        <mxCell id="-JjYpZbtbT3JPwtIFySJ-27" value="&lt;b&gt;&lt;font style=&quot;font-size: 14px;&quot;&gt;F3&lt;/font&gt;&lt;/b&gt;" style="rounded=0;whiteSpace=wrap;html=1;fillColor=#f8cecc;strokeColor=#b85450;" vertex="1" parent="1">
          <mxGeometry x="595" y="315" width="42" height="30" as="geometry" />
        </mxCell>
        <mxCell id="-JjYpZbtbT3JPwtIFySJ-28" value="&lt;b&gt;&lt;font style=&quot;font-size: 14px;&quot;&gt;F1&lt;/font&gt;&lt;/b&gt;" style="rounded=0;whiteSpace=wrap;html=1;fillColor=#dae8fc;strokeColor=#6c8ebf;" vertex="1" parent="1">
          <mxGeometry x="475" y="235" width="42" height="30" as="geometry" />
        </mxCell>
        <mxCell id="-JjYpZbtbT3JPwtIFySJ-29" value="&lt;div&gt;&lt;b&gt;&lt;font style=&quot;font-size: 14px;&quot;&gt;F2&lt;/font&gt;&lt;/b&gt;&lt;/div&gt;" style="rounded=0;whiteSpace=wrap;html=1;fillColor=#dae8fc;strokeColor=#6c8ebf;" vertex="1" parent="1">
          <mxGeometry x="535" y="235" width="42" height="30" as="geometry" />
        </mxCell>
        <mxCell id="-JjYpZbtbT3JPwtIFySJ-30" value="&lt;b&gt;&lt;font style=&quot;font-size: 14px;&quot;&gt;F3&lt;/font&gt;&lt;/b&gt;" style="rounded=0;whiteSpace=wrap;html=1;fillColor=#f8cecc;strokeColor=#b85450;" vertex="1" parent="1">
          <mxGeometry x="590" y="235" width="42" height="30" as="geometry" />
        </mxCell>
        <mxCell id="-JjYpZbtbT3JPwtIFySJ-31" value="&lt;b&gt;&lt;font style=&quot;font-size: 14px;&quot;&gt;F4&lt;/font&gt;&lt;/b&gt;" style="rounded=0;whiteSpace=wrap;html=1;fillColor=#f8cecc;strokeColor=#b85450;" vertex="1" parent="1">
          <mxGeometry x="649" y="235" width="42" height="30" as="geometry" />
        </mxCell>
        <mxCell id="-JjYpZbtbT3JPwtIFySJ-32" value="&lt;b&gt;&lt;font style=&quot;font-size: 14px;&quot;&gt;F5&lt;/font&gt;&lt;/b&gt;" style="rounded=0;whiteSpace=wrap;html=1;fillColor=#fff2cc;strokeColor=#d6b656;" vertex="1" parent="1">
          <mxGeometry x="700" y="235" width="42" height="30" as="geometry" />
        </mxCell>
        <mxCell id="-JjYpZbtbT3JPwtIFySJ-33" value="&lt;b&gt;&lt;font style=&quot;font-size: 14px;&quot;&gt;F5&lt;/font&gt;&lt;/b&gt;" style="rounded=0;whiteSpace=wrap;html=1;fillColor=#f8cecc;strokeColor=#b85450;" vertex="1" parent="1">
          <mxGeometry x="700" y="315" width="42" height="30" as="geometry" />
        </mxCell>
        <mxCell id="-JjYpZbtbT3JPwtIFySJ-35" value="" style="shape=flexArrow;endArrow=classic;html=1;rounded=0;" edge="1" parent="1">
          <mxGeometry width="50" height="50" relative="1" as="geometry">
            <mxPoint x="610.5" y="450.5" as="sourcePoint" />
            <mxPoint x="610.5" y="530.5" as="targetPoint" />
            <Array as="points">
              <mxPoint x="610.5" y="450" />
            </Array>
          </mxGeometry>
        </mxCell>
        <mxCell id="-JjYpZbtbT3JPwtIFySJ-36" value="Eliminamos &lt;b&gt;F2&lt;/b&gt;" style="text;strokeColor=none;align=center;fillColor=none;html=1;verticalAlign=middle;whiteSpace=wrap;rounded=0;" vertex="1" parent="1">
          <mxGeometry x="631" y="470" width="60" height="30" as="geometry" />
        </mxCell>
        <mxCell id="-JjYpZbtbT3JPwtIFySJ-37" value="" style="rounded=0;whiteSpace=wrap;html=1;fillColor=#f5f5f5;fontColor=#333333;strokeColor=#666666;" vertex="1" parent="1">
          <mxGeometry x="465" y="710" width="292" height="60" as="geometry" />
        </mxCell>
        <mxCell id="-JjYpZbtbT3JPwtIFySJ-38" value="" style="rounded=0;whiteSpace=wrap;html=1;fillColor=#f5f5f5;fontColor=#333333;strokeColor=#666666;" vertex="1" parent="1">
          <mxGeometry x="465" y="630" width="292" height="60" as="geometry" />
        </mxCell>
        <mxCell id="-JjYpZbtbT3JPwtIFySJ-39" value="" style="rounded=0;whiteSpace=wrap;html=1;fillColor=#f5f5f5;fontColor=#333333;strokeColor=#666666;" vertex="1" parent="1">
          <mxGeometry x="465" y="550" width="292" height="60" as="geometry" />
        </mxCell>
        <mxCell id="-JjYpZbtbT3JPwtIFySJ-40" value="&lt;b&gt;&lt;font style=&quot;font-size: 14px;&quot;&gt;F1&lt;/font&gt;&lt;/b&gt;" style="rounded=0;whiteSpace=wrap;html=1;fillColor=#dae8fc;strokeColor=#6c8ebf;" vertex="1" parent="1">
          <mxGeometry x="475" y="725" width="42" height="30" as="geometry" />
        </mxCell>
        <mxCell id="-JjYpZbtbT3JPwtIFySJ-41" value="&lt;div&gt;&lt;b&gt;&lt;font style=&quot;font-size: 14px;&quot;&gt;F2&lt;/font&gt;&lt;/b&gt;&lt;/div&gt;" style="rounded=0;whiteSpace=wrap;html=1;fillColor=#dae8fc;strokeColor=#6c8ebf;" vertex="1" parent="1">
          <mxGeometry x="535" y="725" width="42" height="30" as="geometry" />
        </mxCell>
        <mxCell id="-JjYpZbtbT3JPwtIFySJ-42" value="&lt;b&gt;&lt;font style=&quot;font-size: 14px;&quot;&gt;F3&lt;/font&gt;&lt;/b&gt;" style="rounded=0;whiteSpace=wrap;html=1;fillColor=#dae8fc;strokeColor=#6c8ebf;" vertex="1" parent="1">
          <mxGeometry x="595" y="725" width="42" height="30" as="geometry" />
        </mxCell>
        <mxCell id="-JjYpZbtbT3JPwtIFySJ-43" value="&lt;b&gt;&lt;font style=&quot;font-size: 14px;&quot;&gt;F4&lt;/font&gt;&lt;/b&gt;" style="rounded=0;whiteSpace=wrap;html=1;fillColor=#f8cecc;strokeColor=#b85450;" vertex="1" parent="1">
          <mxGeometry x="649" y="645" width="42" height="30" as="geometry" />
        </mxCell>
        <mxCell id="-JjYpZbtbT3JPwtIFySJ-44" value="&lt;b&gt;&lt;font style=&quot;font-size: 14px;&quot;&gt;F3&lt;/font&gt;&lt;/b&gt;" style="rounded=0;whiteSpace=wrap;html=1;fillColor=#f8cecc;strokeColor=#b85450;" vertex="1" parent="1">
          <mxGeometry x="595" y="645" width="42" height="30" as="geometry" />
        </mxCell>
        <mxCell id="-JjYpZbtbT3JPwtIFySJ-45" value="&lt;b&gt;&lt;font style=&quot;font-size: 14px;&quot;&gt;F1&lt;/font&gt;&lt;/b&gt;" style="rounded=0;whiteSpace=wrap;html=1;fillColor=#dae8fc;strokeColor=#6c8ebf;" vertex="1" parent="1">
          <mxGeometry x="475" y="565" width="42" height="30" as="geometry" />
        </mxCell>
        <mxCell id="-JjYpZbtbT3JPwtIFySJ-46" value="&lt;div&gt;&lt;b&gt;&lt;font style=&quot;font-size: 14px;&quot;&gt;F2&lt;/font&gt;&lt;/b&gt;&lt;/div&gt;" style="rounded=0;whiteSpace=wrap;html=1;fillColor=#a20025;strokeColor=#6F0000;fontColor=#ffffff;" vertex="1" parent="1">
          <mxGeometry x="535" y="645" width="42" height="30" as="geometry" />
        </mxCell>
        <mxCell id="-JjYpZbtbT3JPwtIFySJ-47" value="&lt;b&gt;&lt;font style=&quot;font-size: 14px;&quot;&gt;F3&lt;/font&gt;&lt;/b&gt;" style="rounded=0;whiteSpace=wrap;html=1;fillColor=#f8cecc;strokeColor=#b85450;" vertex="1" parent="1">
          <mxGeometry x="590" y="565" width="42" height="30" as="geometry" />
        </mxCell>
        <mxCell id="-JjYpZbtbT3JPwtIFySJ-48" value="&lt;b&gt;&lt;font style=&quot;font-size: 14px;&quot;&gt;F4&lt;/font&gt;&lt;/b&gt;" style="rounded=0;whiteSpace=wrap;html=1;fillColor=#f8cecc;strokeColor=#b85450;" vertex="1" parent="1">
          <mxGeometry x="649" y="565" width="42" height="30" as="geometry" />
        </mxCell>
        <mxCell id="-JjYpZbtbT3JPwtIFySJ-49" value="&lt;b&gt;&lt;font style=&quot;font-size: 14px;&quot;&gt;F5&lt;/font&gt;&lt;/b&gt;" style="rounded=0;whiteSpace=wrap;html=1;fillColor=#fff2cc;strokeColor=#d6b656;" vertex="1" parent="1">
          <mxGeometry x="700" y="565" width="42" height="30" as="geometry" />
        </mxCell>
        <mxCell id="-JjYpZbtbT3JPwtIFySJ-50" value="&lt;b&gt;&lt;font style=&quot;font-size: 14px;&quot;&gt;F5&lt;/font&gt;&lt;/b&gt;" style="rounded=0;whiteSpace=wrap;html=1;fillColor=#f8cecc;strokeColor=#b85450;" vertex="1" parent="1">
          <mxGeometry x="700" y="645" width="42" height="30" as="geometry" />
        </mxCell>
        <mxCell id="-JjYpZbtbT3JPwtIFySJ-51" value="" style="shape=flexArrow;endArrow=classic;html=1;rounded=0;" edge="1" parent="1">
          <mxGeometry width="50" height="50" relative="1" as="geometry">
            <mxPoint x="454" y="659.5" as="sourcePoint" />
            <mxPoint x="360" y="659.5" as="targetPoint" />
            <Array as="points" />
          </mxGeometry>
        </mxCell>
        <mxCell id="-JjYpZbtbT3JPwtIFySJ-52" value="&lt;div&gt;Modificamos&lt;/div&gt;&lt;div&gt;&lt;b&gt;F1&lt;/b&gt;&lt;/div&gt;" style="text;strokeColor=none;align=center;fillColor=none;html=1;verticalAlign=middle;whiteSpace=wrap;rounded=0;" vertex="1" parent="1">
          <mxGeometry x="390" y="600" width="60" height="30" as="geometry" />
        </mxCell>
        <mxCell id="-JjYpZbtbT3JPwtIFySJ-53" value="" style="rounded=0;whiteSpace=wrap;html=1;fillColor=#f5f5f5;fontColor=#333333;strokeColor=#666666;" vertex="1" parent="1">
          <mxGeometry x="55" y="710" width="292" height="60" as="geometry" />
        </mxCell>
        <mxCell id="-JjYpZbtbT3JPwtIFySJ-54" value="" style="rounded=0;whiteSpace=wrap;html=1;fillColor=#f5f5f5;fontColor=#333333;strokeColor=#666666;" vertex="1" parent="1">
          <mxGeometry x="55" y="630" width="292" height="60" as="geometry" />
        </mxCell>
        <mxCell id="-JjYpZbtbT3JPwtIFySJ-55" value="" style="rounded=0;whiteSpace=wrap;html=1;fillColor=#f5f5f5;fontColor=#333333;strokeColor=#666666;" vertex="1" parent="1">
          <mxGeometry x="55" y="550" width="292" height="60" as="geometry" />
        </mxCell>
        <mxCell id="-JjYpZbtbT3JPwtIFySJ-56" value="&lt;b&gt;&lt;font style=&quot;font-size: 14px;&quot;&gt;F1&lt;/font&gt;&lt;/b&gt;" style="rounded=0;whiteSpace=wrap;html=1;fillColor=#dae8fc;strokeColor=#6c8ebf;" vertex="1" parent="1">
          <mxGeometry x="65" y="725" width="42" height="30" as="geometry" />
        </mxCell>
        <mxCell id="-JjYpZbtbT3JPwtIFySJ-57" value="&lt;div&gt;&lt;b&gt;&lt;font style=&quot;font-size: 14px;&quot;&gt;F2&lt;/font&gt;&lt;/b&gt;&lt;/div&gt;" style="rounded=0;whiteSpace=wrap;html=1;fillColor=#dae8fc;strokeColor=#6c8ebf;" vertex="1" parent="1">
          <mxGeometry x="125" y="725" width="42" height="30" as="geometry" />
        </mxCell>
        <mxCell id="-JjYpZbtbT3JPwtIFySJ-58" value="&lt;b&gt;&lt;font style=&quot;font-size: 14px;&quot;&gt;F3&lt;/font&gt;&lt;/b&gt;" style="rounded=0;whiteSpace=wrap;html=1;fillColor=#dae8fc;strokeColor=#6c8ebf;" vertex="1" parent="1">
          <mxGeometry x="185" y="725" width="42" height="30" as="geometry" />
        </mxCell>
        <mxCell id="-JjYpZbtbT3JPwtIFySJ-59" value="&lt;b&gt;&lt;font style=&quot;font-size: 14px;&quot;&gt;F4&lt;/font&gt;&lt;/b&gt;" style="rounded=0;whiteSpace=wrap;html=1;fillColor=#f8cecc;strokeColor=#b85450;" vertex="1" parent="1">
          <mxGeometry x="239" y="645" width="42" height="30" as="geometry" />
        </mxCell>
        <mxCell id="-JjYpZbtbT3JPwtIFySJ-60" value="&lt;b&gt;&lt;font style=&quot;font-size: 14px;&quot;&gt;F3&lt;/font&gt;&lt;/b&gt;" style="rounded=0;whiteSpace=wrap;html=1;fillColor=#f8cecc;strokeColor=#b85450;" vertex="1" parent="1">
          <mxGeometry x="185" y="645" width="42" height="30" as="geometry" />
        </mxCell>
        <mxCell id="-JjYpZbtbT3JPwtIFySJ-61" value="&lt;b&gt;&lt;font style=&quot;font-size: 14px;&quot;&gt;F1&lt;/font&gt;&lt;/b&gt;" style="rounded=0;whiteSpace=wrap;html=1;fillColor=#fff2cc;strokeColor=#d6b656;" vertex="1" parent="1">
          <mxGeometry x="65" y="565" width="42" height="30" as="geometry" />
        </mxCell>
        <mxCell id="-JjYpZbtbT3JPwtIFySJ-62" value="&lt;div&gt;&lt;b&gt;&lt;font style=&quot;font-size: 14px;&quot;&gt;F2&lt;/font&gt;&lt;/b&gt;&lt;/div&gt;" style="rounded=0;whiteSpace=wrap;html=1;fillColor=#a20025;strokeColor=#6F0000;fontColor=#ffffff;" vertex="1" parent="1">
          <mxGeometry x="125" y="645" width="42" height="30" as="geometry" />
        </mxCell>
        <mxCell id="-JjYpZbtbT3JPwtIFySJ-63" value="&lt;b&gt;&lt;font style=&quot;font-size: 14px;&quot;&gt;F3&lt;/font&gt;&lt;/b&gt;" style="rounded=0;whiteSpace=wrap;html=1;fillColor=#f8cecc;strokeColor=#b85450;" vertex="1" parent="1">
          <mxGeometry x="180" y="565" width="42" height="30" as="geometry" />
        </mxCell>
        <mxCell id="-JjYpZbtbT3JPwtIFySJ-64" value="&lt;b&gt;&lt;font style=&quot;font-size: 14px;&quot;&gt;F4&lt;/font&gt;&lt;/b&gt;" style="rounded=0;whiteSpace=wrap;html=1;fillColor=#f8cecc;strokeColor=#b85450;" vertex="1" parent="1">
          <mxGeometry x="239" y="565" width="42" height="30" as="geometry" />
        </mxCell>
        <mxCell id="-JjYpZbtbT3JPwtIFySJ-65" value="&lt;b&gt;&lt;font style=&quot;font-size: 14px;&quot;&gt;F5&lt;/font&gt;&lt;/b&gt;" style="rounded=0;whiteSpace=wrap;html=1;fillColor=#fff2cc;strokeColor=#d6b656;" vertex="1" parent="1">
          <mxGeometry x="290" y="565" width="42" height="30" as="geometry" />
        </mxCell>
        <mxCell id="-JjYpZbtbT3JPwtIFySJ-66" value="&lt;b&gt;&lt;font style=&quot;font-size: 14px;&quot;&gt;F5&lt;/font&gt;&lt;/b&gt;" style="rounded=0;whiteSpace=wrap;html=1;fillColor=#f8cecc;strokeColor=#b85450;" vertex="1" parent="1">
          <mxGeometry x="290" y="645" width="42" height="30" as="geometry" />
        </mxCell>
        <mxCell id="-JjYpZbtbT3JPwtIFySJ-67" value="&lt;b&gt;&lt;font style=&quot;font-size: 14px;&quot;&gt;F1&lt;/font&gt;&lt;/b&gt;" style="rounded=0;whiteSpace=wrap;html=1;fillColor=#f8cecc;strokeColor=#b85450;" vertex="1" parent="1">
          <mxGeometry x="65" y="645" width="42" height="30" as="geometry" />
        </mxCell>
        <mxCell id="-JjYpZbtbT3JPwtIFySJ-68" value="&lt;b&gt;Merged&lt;/b&gt;" style="text;strokeColor=none;align=center;fillColor=none;html=1;verticalAlign=middle;whiteSpace=wrap;rounded=0;" vertex="1" parent="1">
          <mxGeometry x="775" y="235" width="60" height="30" as="geometry" />
        </mxCell>
        <mxCell id="-JjYpZbtbT3JPwtIFySJ-69" value="&lt;b&gt;Upper&lt;/b&gt;" style="text;strokeColor=none;align=center;fillColor=none;html=1;verticalAlign=middle;whiteSpace=wrap;rounded=0;" vertex="1" parent="1">
          <mxGeometry x="770" y="315" width="60" height="30" as="geometry" />
        </mxCell>
        <mxCell id="-JjYpZbtbT3JPwtIFySJ-70" value="&lt;b&gt;Lower&lt;/b&gt;" style="text;strokeColor=none;align=center;fillColor=none;html=1;verticalAlign=middle;whiteSpace=wrap;rounded=0;" vertex="1" parent="1">
          <mxGeometry x="770" y="395" width="60" height="30" as="geometry" />
        </mxCell>
        <mxCell id="-JjYpZbtbT3JPwtIFySJ-74" value="&lt;b&gt;Merged&lt;/b&gt;" style="text;strokeColor=none;align=center;fillColor=none;html=1;verticalAlign=middle;whiteSpace=wrap;rounded=0;" vertex="1" parent="1">
          <mxGeometry x="772.5" y="560" width="60" height="30" as="geometry" />
        </mxCell>
        <mxCell id="-JjYpZbtbT3JPwtIFySJ-75" value="&lt;b&gt;Upper&lt;/b&gt;" style="text;strokeColor=none;align=center;fillColor=none;html=1;verticalAlign=middle;whiteSpace=wrap;rounded=0;" vertex="1" parent="1">
          <mxGeometry x="767.5" y="640" width="60" height="30" as="geometry" />
        </mxCell>
        <mxCell id="-JjYpZbtbT3JPwtIFySJ-76" value="&lt;b&gt;Lower&lt;/b&gt;" style="text;strokeColor=none;align=center;fillColor=none;html=1;verticalAlign=middle;whiteSpace=wrap;rounded=0;" vertex="1" parent="1">
          <mxGeometry x="767.5" y="720" width="60" height="30" as="geometry" />
        </mxCell>
        <mxCell id="-JjYpZbtbT3JPwtIFySJ-77" value="&lt;b&gt;Merged&lt;/b&gt;" style="text;strokeColor=none;align=center;fillColor=none;html=1;verticalAlign=middle;whiteSpace=wrap;rounded=0;" vertex="1" parent="1">
          <mxGeometry x="-25" y="240" width="60" height="30" as="geometry" />
        </mxCell>
        <mxCell id="-JjYpZbtbT3JPwtIFySJ-78" value="&lt;b&gt;Upper&lt;/b&gt;" style="text;strokeColor=none;align=center;fillColor=none;html=1;verticalAlign=middle;whiteSpace=wrap;rounded=0;" vertex="1" parent="1">
          <mxGeometry x="-30" y="320" width="60" height="30" as="geometry" />
        </mxCell>
        <mxCell id="-JjYpZbtbT3JPwtIFySJ-79" value="&lt;b&gt;Lower&lt;/b&gt;" style="text;strokeColor=none;align=center;fillColor=none;html=1;verticalAlign=middle;whiteSpace=wrap;rounded=0;" vertex="1" parent="1">
          <mxGeometry x="-30" y="400" width="60" height="30" as="geometry" />
        </mxCell>
        <mxCell id="-JjYpZbtbT3JPwtIFySJ-80" value="&lt;b&gt;Merged&lt;/b&gt;" style="text;strokeColor=none;align=center;fillColor=none;html=1;verticalAlign=middle;whiteSpace=wrap;rounded=0;" vertex="1" parent="1">
          <mxGeometry x="-27.5" y="565" width="60" height="30" as="geometry" />
        </mxCell>
        <mxCell id="-JjYpZbtbT3JPwtIFySJ-81" value="&lt;b&gt;Upper&lt;/b&gt;" style="text;strokeColor=none;align=center;fillColor=none;html=1;verticalAlign=middle;whiteSpace=wrap;rounded=0;" vertex="1" parent="1">
          <mxGeometry x="-32.5" y="645" width="60" height="30" as="geometry" />
        </mxCell>
        <mxCell id="-JjYpZbtbT3JPwtIFySJ-82" value="&lt;b&gt;Lower&lt;/b&gt;" style="text;strokeColor=none;align=center;fillColor=none;html=1;verticalAlign=middle;whiteSpace=wrap;rounded=0;" vertex="1" parent="1">
          <mxGeometry x="-32.5" y="725" width="60" height="30" as="geometry" />
        </mxCell>
      </root>
    </mxGraphModel>
  </diagram>
</mxfile>
